<svg xmlns="http://www.w3.org/2000/svg" width="20" height="20" viewBox="0 0 20 20" fill="none">
                                            <path class="svg-fill" d="M17.3722 6.47085C17.7995 7.0155 17.3282 7.70964 16.6359 7.70964H2.66602C2.11373 7.70964 1.66602 7.26192 1.66602 6.70964V5.3513C1.66602 3.31797 3.31602 1.66797 5.34935 1.66797H7.28268C8.64102 1.66797 9.06602 2.10964 9.60768 2.83464L10.7744 4.38464C11.0327 4.7263 11.066 4.76797 11.5493 4.76797H13.8744C15.2932 4.76797 16.5581 5.43348 17.3722 6.47085Z" fill="#ff008e"/>
                                            <path class="svg-fill" d="M17.3194 8.95704C17.8704 8.95704 18.3175 9.40269 18.3194 9.95365L18.3327 13.8739C18.3327 16.3323 16.3327 18.3323 13.8743 18.3323H6.12435C3.66602 18.3323 1.66602 16.3323 1.66602 13.8739V9.95724C1.66602 9.40496 2.11372 8.95725 2.666 8.95724L17.3194 8.95704Z" fill="#ff008e"/>
                                            </svg>