<svg xmlns="http://www.w3.org/2000/svg" width="20" height="20" viewBox="0 0 20 20" fill="none">
                                            <path class="svg-fill" d="M16.2586 4.8763L11.3086 2.01797C10.5003 1.5513 9.50026 1.5513 8.68359 2.01797L3.74193 4.8763C2.93359 5.34297 2.43359 6.20964 2.43359 7.1513V12.8513C2.43359 13.7846 2.93359 14.6513 3.74193 15.1263L8.69193 17.9846C9.50026 18.4513 10.5003 18.4513 11.3169 17.9846L16.2669 15.1263C17.0753 14.6596 17.5753 13.793 17.5753 12.8513V7.1513C17.5669 6.20964 17.0669 5.3513 16.2586 4.8763ZM10.0003 6.11797C11.0753 6.11797 11.9419 6.98464 11.9419 8.05964C11.9419 9.13464 11.0753 10.0013 10.0003 10.0013C8.92526 10.0013 8.05859 9.13464 8.05859 8.05964C8.05859 6.99297 8.92526 6.11797 10.0003 6.11797ZM12.2336 13.8846H7.76693C7.09193 13.8846 6.70026 13.1346 7.07526 12.5763C7.64193 11.7346 8.74193 11.168 10.0003 11.168C11.2586 11.168 12.3586 11.7346 12.9253 12.5763C13.3003 13.1263 12.9003 13.8846 12.2336 13.8846Z" fill="#ff008e"/>
                                            </svg>