<svg xmlns="http://www.w3.org/2000/svg" width="20" height="20" viewBox="0 0 20 20" fill="none">
                                            <path class="svg-fill" d="M13.1493 1.66797H6.84935C3.69935 1.66797 2.91602 2.50964 2.91602 5.86797V15.2513C2.91602 17.468 4.13268 17.993 5.60768 16.4096L5.61602 16.4013C6.29935 15.6763 7.34102 15.7346 7.93268 16.5263L8.77435 17.6513C9.44935 18.543 10.541 18.543 11.216 17.6513L12.0577 16.5263C12.6577 15.7263 13.6993 15.668 14.3827 16.4013C15.866 17.9846 17.0743 17.4596 17.0743 15.243V5.86797C17.0827 2.50964 16.2993 1.66797 13.1493 1.66797ZM12.291 8.95964H7.70768C7.36602 8.95964 7.08268 8.6763 7.08268 8.33464C7.08268 7.99297 7.36602 7.70964 7.70768 7.70964H12.291C12.6327 7.70964 12.916 7.99297 12.916 8.33464C12.916 8.6763 12.6327 8.95964 12.291 8.95964Z" fill="#ff008e"/>
                                            </svg>