<svg xmlns="http://www.w3.org/2000/svg" width="20" height="20" viewBox="0 0 20 20" fill="none">
                                            <path class="svg-fill" d="M14.4916 13.0583L11.1249 10H8.86657L5.4999 13.0583C4.55823 13.9083 4.2499 15.2167 4.70823 16.4C5.16657 17.575 6.28323 18.3333 7.54157 18.3333H12.4499C13.7166 18.3333 14.8249 17.575 15.2832 16.4C15.7416 15.2167 15.4332 13.9083 14.4916 13.0583ZM11.5166 15.1167H8.48323C8.16657 15.1167 7.91657 14.8583 7.91657 14.55C7.91657 14.2417 8.1749 13.9833 8.48323 13.9833H11.5166C11.8332 13.9833 12.0832 14.2417 12.0832 14.55C12.0832 14.8583 11.8249 15.1167 11.5166 15.1167Z" fill="#ff008e"/>
                                            <path class="svg-fill" d="M15.2919 3.6013C14.8335 2.4263 13.7169 1.66797 12.4585 1.66797H7.54188C6.28355 1.66797 5.16688 2.4263 4.70855 3.6013C4.25855 4.78464 4.56688 6.09297 5.50855 6.94297L8.87521 10.0013H11.1335L14.5002 6.94297C15.4335 6.09297 15.7419 4.78464 15.2919 3.6013ZM11.5169 6.0263H8.48355C8.16688 6.0263 7.91688 5.76797 7.91688 5.45964C7.91688 5.1513 8.17522 4.89297 8.48355 4.89297H11.5169C11.8335 4.89297 12.0835 5.1513 12.0835 5.45964C12.0835 5.76797 11.8252 6.0263 11.5169 6.0263Z" fill="#ff008e"/>
                                            </svg>