<svg xmlns="http://www.w3.org/2000/svg" width="16" height="16" viewBox="0 0 16 16" fill="none">
                                                    <mask id="mask0_2202_135862" style="mask-type:alpha" maskUnits="userSpaceOnUse" x="0" y="0" width="15" height="15">
                                                    <path fill-rule="evenodd" clip-rule="evenodd" d="M1.33301 1.33203H14.1484V13.8645H1.33301V1.33203Z" fill="white" stroke="white"/>
                                                    </mask>
                                                    <g mask="url(#mask0_2202_135862)">
                                                    <path fill-rule="evenodd" clip-rule="evenodd" d="M7.7411 2.2972C4.75189 2.2972 2.31999 4.67474 2.31999 7.59793C2.31999 10.5211 4.75189 12.8993 7.7411 12.8993C10.7297 12.8993 13.1615 10.5211 13.1615 7.59793C13.1615 4.67474 10.7297 2.2972 7.7411 2.2972ZM7.74109 13.8645C4.20773 13.8645 1.33301 11.0532 1.33301 7.59793C1.33301 4.14261 4.20773 1.33203 7.74109 1.33203C11.2744 1.33203 14.1485 4.14261 14.1485 7.59793C14.1485 11.0532 11.2744 13.8645 7.74109 13.8645Z" fill="#B9B8BB"/>
                                                    <path d="M7.7411 1.7972C4.48641 1.7972 1.81999 4.38805 1.81999 7.59793H2.81999C2.81999 4.96143 5.01737 2.7972 7.7411 2.7972V1.7972ZM1.81999 7.59793C1.81999 10.8077 4.48634 13.3993 7.7411 13.3993V12.3993C5.01745 12.3993 2.81999 10.2345 2.81999 7.59793H1.81999ZM7.7411 13.3993C10.9952 13.3993 13.6615 10.8077 13.6615 7.59793H12.6615C12.6615 10.2345 10.4641 12.3993 7.7411 12.3993V13.3993ZM13.6615 7.59793C13.6615 4.38809 10.9952 1.7972 7.7411 1.7972V2.7972C10.4641 2.7972 12.6615 4.96139 12.6615 7.59793H13.6615ZM7.74109 13.3645C4.47328 13.3645 1.83301 10.7666 1.83301 7.59793H0.833008C0.833008 11.3399 3.94217 14.3645 7.74109 14.3645V13.3645ZM1.83301 7.59793C1.83301 4.42929 4.47322 1.83203 7.74109 1.83203V0.832031C3.94224 0.832031 0.833008 3.85593 0.833008 7.59793H1.83301ZM7.74109 1.83203C11.0089 1.83203 13.6485 4.42922 13.6485 7.59793H14.6485C14.6485 3.856 11.54 0.832031 7.74109 0.832031V1.83203ZM13.6485 7.59793C13.6485 10.7667 11.0088 13.3645 7.74109 13.3645V14.3645C11.5401 14.3645 14.6485 11.3398 14.6485 7.59793H13.6485Z" fill="#B9B8BB"/>
                                                    </g>
                                                    <mask id="mask1_2202_135862" style="mask-type:alpha" maskUnits="userSpaceOnUse" x="10" y="10" width="6" height="6">
                                                    <path fill-rule="evenodd" clip-rule="evenodd" d="M11.3604 11.4375H14.6661V14.6642H11.3604V11.4375Z" fill="white" stroke="white"/>
                                                    </mask>
                                                    <g mask="url(#mask1_2202_135862)">
                                                    <path fill-rule="evenodd" clip-rule="evenodd" d="M14.1727 14.6642C14.0471 14.6642 13.9207 14.6173 13.824 14.5233L11.5053 12.2622C11.3125 12.0737 11.3118 11.7681 11.5046 11.5795C11.6967 11.3897 12.0093 11.391 12.2027 11.5783L14.5215 13.84C14.7142 14.0285 14.7149 14.3335 14.5221 14.522C14.4261 14.6173 14.2991 14.6642 14.1727 14.6642Z" fill="#B9B8BB"/>
                                                    <path d="M14.1727 14.6642C14.0471 14.6642 13.9207 14.6173 13.824 14.5233L11.5053 12.2622C11.3125 12.0737 11.3118 11.7681 11.5046 11.5795C11.6967 11.3897 12.0093 11.391 12.2027 11.5783L14.5215 13.84C14.7142 14.0285 14.7149 14.3335 14.5221 14.522C14.4261 14.6173 14.2991 14.6642 14.1727 14.6642" stroke="#B9B8BB"/>
                                                    </g>
                                                    </svg>