<svg xmlns="http://www.w3.org/2000/svg" width="23" height="22" viewBox="0 0 23 22" fill="none">
                                                <g clip-path="url(#clip0_2202_134581)">
                                                <path fill-rule="evenodd" clip-rule="evenodd" d="M12.1684 0.967074C11.5544 0.690158 10.8241 0.711542 10.2133 0.986319C9.35057 1.34387 8.48287 1.68816 7.61524 2.03242C6.94437 2.29861 6.27353 2.56478 5.60509 2.83706C5.47747 2.89018 5.34671 2.93943 5.21546 2.98886C4.74977 3.16426 4.27805 3.34192 3.9192 3.70309C3.57336 4.07456 3.38669 4.55139 3.20262 5.02161C3.16418 5.11981 3.12585 5.21772 3.0862 5.31433C2.59336 6.4803 2.10528 7.64835 1.61703 8.8168C1.49907 9.0991 1.3811 9.38141 1.26305 9.66373C1.22694 9.74834 1.18912 9.83257 1.15125 9.91691C1.01111 10.229 0.870242 10.5428 0.8125 10.8837V11.5444C0.817735 11.5871 0.825132 11.6491 0.832727 11.7126C0.841853 11.7891 0.851264 11.8678 0.857555 11.9186L0.929852 11.9325C1.05184 12.2803 1.1973 12.6185 1.34268 12.9565C1.40334 13.0975 1.46398 13.2385 1.5229 13.3802C1.63995 13.6417 1.74898 13.9069 1.85803 14.1722C1.95007 14.3961 2.04212 14.62 2.139 14.8417C2.27416 15.1514 2.40273 15.4642 2.53132 15.7771C2.61405 15.9784 2.69679 16.1798 2.7813 16.3803C2.94161 16.7278 3.09249 17.0795 3.22975 17.4366C3.46969 18.1476 3.88043 18.8255 4.56568 19.1655C5.1032 19.359 5.63862 19.56 6.15413 19.8113L6.41084 19.8369L6.42132 19.915C7.42929 20.2699 8.41736 20.6805 9.40018 21.0996C9.45257 21.1124 9.5584 21.137 9.61079 21.1488C9.825 21.2445 10.0412 21.3338 10.2575 21.4232C10.4253 21.4925 10.5932 21.5618 10.7602 21.6342C11.5062 21.77 12.2145 21.492 12.882 21.183C13.1639 21.0477 13.4574 20.9421 13.7509 20.8365C14.0279 20.7369 14.3049 20.6372 14.5721 20.5126C14.5941 20.5055 14.6259 20.4947 14.6588 20.4835C14.6997 20.4697 14.7423 20.4552 14.7701 20.4463C15.8389 20.0005 16.917 19.575 18.0004 19.1633C18.4017 18.9228 18.7978 18.6213 18.9896 18.1722C19.3663 17.3313 19.7199 16.4795 20.0736 15.6277C20.2136 15.2903 20.3537 14.9529 20.4952 14.6161C20.6496 14.2119 20.8249 13.8158 21.0002 13.4197C21.2867 12.7724 21.5733 12.125 21.7683 11.4418V11.0954C21.5159 10.2348 21.1596 9.41477 20.8032 8.59468C20.5928 8.11063 20.3825 7.62654 20.1935 7.13406C20.011 6.72911 19.8432 6.31731 19.6755 5.90556C19.4292 5.30087 19.183 4.69629 18.89 4.11365C18.569 3.50366 17.911 3.24976 17.3084 3.01726C17.2699 3.00239 17.2316 2.98762 17.1936 2.97284C16.285 2.60487 15.3736 2.24322 14.462 1.88153C13.697 1.57799 12.932 1.27443 12.1684 0.967074ZM8.71521 5.9249C9.20348 5.54748 9.79653 5.33472 10.3938 5.21925C11.8355 4.99579 13.3737 5.23742 14.6394 5.99761C14.9202 6.15905 15.2167 6.34616 15.3592 6.65622C15.6317 7.22823 15.178 8.00338 14.5441 7.99161C14.2389 8.03363 13.9816 7.87381 13.7301 7.71754C13.6552 7.67099 13.5807 7.62475 13.5057 7.58426C12.635 7.05823 11.583 6.85615 10.5876 7.05074C10.0951 7.16728 9.65717 7.51904 9.48114 8.00979C9.41409 8.38614 9.39942 8.83305 9.66556 9.13777C9.99036 9.55346 10.4983 9.72566 10.9806 9.88912C11.049 9.91233 11.117 9.93537 11.1838 9.95889C11.4494 10.0367 11.7199 10.107 11.9914 10.1775C12.9913 10.4371 14.004 10.7 14.828 11.3584C15.5395 11.8845 15.8905 12.8008 15.8517 13.6818C15.8842 14.6739 15.4525 15.6747 14.6803 16.2852C13.8431 16.9566 12.7544 17.2047 11.7066 17.178C10.2418 17.2047 8.79799 16.6925 7.60455 15.8415C7.32375 15.6416 7.03456 15.3529 7.04084 14.9776C7.00103 14.4323 7.51549 13.9341 8.04358 13.9694C8.33991 13.9678 8.57124 14.1468 8.79847 14.3227C8.87655 14.3831 8.95415 14.4432 9.03374 14.4954C10.0155 15.2 11.2613 15.4951 12.4464 15.3133C12.8362 15.2321 13.2291 15.076 13.4973 14.7648C13.9877 14.2751 13.9804 13.3471 13.4261 12.9098C12.8338 12.4604 12.1007 12.281 11.3927 12.1078C11.3579 12.0993 11.3232 12.0908 11.2886 12.0823C11.244 12.0705 11.1993 12.0587 11.1544 12.0469C10.0924 11.7675 8.97439 11.4734 8.16407 10.6752C7.61503 10.1257 7.39185 9.32487 7.42957 8.55614C7.38033 7.52973 7.89584 6.51188 8.71521 5.9249Z" fill="#7310C1"/>
                                                <path fill-rule="evenodd" clip-rule="evenodd" d="M9.92521 5.02941C11.3644 4.80485 12.8997 5.04767 14.1632 5.81162C14.4435 5.97386 14.7395 6.16189 14.8817 6.47349C15.1536 7.04832 14.7008 7.82731 14.068 7.81549C13.6727 7.87029 13.3578 7.58341 13.0315 7.40612C12.1624 6.87749 11.1123 6.67441 10.1187 6.86996C9.62713 6.98708 9.18994 7.34058 9.01423 7.83376C8.94729 8.21197 8.93265 8.66109 9.19831 8.96732C9.56856 9.44438 10.1773 9.60232 10.7138 9.7925C11.9553 10.1589 13.3055 10.3577 14.3514 11.199C15.0616 11.7276 15.412 12.6484 15.3733 13.5338C15.4057 14.5309 14.9748 15.5366 14.204 16.1501C13.3683 16.8249 12.2816 17.0741 11.2357 17.0473C9.77355 17.0741 8.33231 16.5595 7.14103 15.7042C6.86073 15.5033 6.57206 15.2132 6.57834 14.836C6.53859 14.2881 7.05213 13.7874 7.57926 13.8228C7.9767 13.8207 8.257 14.1462 8.56763 14.3514C9.54764 15.0595 10.7912 15.3561 11.9741 15.1734C12.3632 15.0918 12.7554 14.9349 13.0232 14.6222C13.5126 14.1301 13.5053 13.1975 12.952 12.758C12.3318 12.2842 11.5568 12.109 10.8184 11.9264C9.71917 11.6341 8.54253 11.3483 7.69954 10.5124C7.15149 9.96012 6.92871 9.15535 6.96637 8.38281C6.91721 7.35132 7.43179 6.32843 8.24968 5.73855C8.73707 5.35927 9.32905 5.14545 9.92521 5.02941Z" fill="#FEFEFE"/>
                                                </g>
                                                <defs>
                                                <clipPath id="clip0_2202_134581">
                                                <rect width="22" height="22" fill="white" transform="translate(0.761719)"/>
                                                </clipPath>
                                                </defs>
                                                </svg>