<svg xmlns="http://www.w3.org/2000/svg" width="23" height="22" viewBox="0 0 23 22" fill="none">
                                                <path d="M13.2819 22C11.8098 22 10.7378 21.622 10.0641 20.8659C9.39134 20.1102 9.05451 19.2952 9.05451 18.4217C9.05451 18.1024 9.11307 17.8337 9.23052 17.6152C9.34515 17.3999 9.51139 17.2214 9.71225 17.0985C9.91571 16.9724 10.1661 16.9096 10.4638 16.9096C10.7614 16.9096 11.0115 16.9724 11.2153 17.0985C11.4187 17.2244 11.5793 17.3969 11.6966 17.6152C11.814 17.8337 11.8727 18.1024 11.8727 18.4217C11.8727 18.8082 11.7867 19.1229 11.6145 19.3667C11.442 19.6103 11.2386 19.7697 11.0037 19.8457C11.2076 20.1477 11.5285 20.3619 11.9668 20.4879C12.4052 20.6225 12.8435 20.6896 13.2819 20.6896C13.8924 20.6896 14.4443 20.5132 14.9376 20.1606C15.4307 19.8075 15.7949 19.2869 16.0298 18.5981C16.2647 17.9094 16.3821 17.128 16.3821 16.2542C16.3821 15.3051 16.2527 14.4942 15.9946 13.8225C15.7438 13.1421 15.3721 12.638 14.8788 12.3103C14.4007 11.9874 13.8468 11.8171 13.2819 11.8191C12.9059 11.8191 12.4366 11.9871 11.8727 12.3232L10.8393 12.8775V12.3232L15.4895 5.67021H9.05451V12.5748C9.05451 13.1462 9.17195 13.6166 9.40684 13.9863C9.64172 14.356 10.0017 14.5407 10.4874 14.5407C10.8626 14.5407 11.2231 14.4064 11.5676 14.1372C11.9144 13.8659 12.216 13.5338 12.4599 13.155C12.4912 13.0788 12.5304 13.0243 12.5774 12.9907C12.6195 12.9507 12.6737 12.9285 12.73 12.9279C12.816 12.9279 12.9177 12.9741 13.0354 13.0667C13.145 13.2007 13.1998 13.3562 13.1998 13.5326C13.1863 13.6514 13.1666 13.7692 13.1408 13.8856C12.8749 14.524 12.5068 15.0111 12.0371 15.347C11.5797 15.6791 11.0394 15.8548 10.4874 15.8512C9.09367 15.8512 8.13055 15.5571 7.59837 14.9694C7.06619 14.381 6.79993 13.5829 6.79993 12.5752V5.67021H3.51172V4.38475H6.79993V1.46182L6.0484 0.654721V0H8.23246L9.05419 0.453375V4.38475L17.5561 4.35975L18.4018 5.26682L13.188 10.8614C13.5037 10.7263 13.8361 10.6415 14.1745 10.6093C14.7381 10.6093 15.3721 10.8026 16.0767 11.1891C16.7892 11.567 17.3372 12.0881 17.7205 12.7512C18.1042 13.4066 18.3507 14.0367 18.4605 14.6414C18.5779 15.2465 18.6367 15.7838 18.6367 16.2542C18.6367 17.3297 18.4251 18.329 18.0026 19.2535C17.5799 20.1772 16.9379 20.8659 16.0767 21.3197C15.2155 21.7734 14.2838 22 13.2819 22Z" fill="#2C7DF7"/>
                                                </svg>